<?xml version="1.0" encoding="utf-8"?>
<!-- Generator: Adobe Illustrator 14.0.0, SVG Export Plug-In . SVG Version: 6.00 Build 43363)  -->
<!DOCTYPE svg PUBLIC "-//W3C//DTD SVG 1.1//EN" "http://www.w3.org/Graphics/SVG/1.1/DTD/svg11.dtd">
<svg version="1.1" id="Layer_1" xmlns="http://www.w3.org/2000/svg" xmlns:xlink="http://www.w3.org/1999/xlink" x="0px" y="0px"
	 width="612px" height="792px" viewBox="0 0 612 792" enable-background="new 0 0 612 792" xml:space="preserve">
<g>
	<path fill="#010101" d="M452.914,389.761v-4.758h-1.699v-0.969h4.551v0.969h-1.695v4.758H452.914z"/>
	<path fill="#010101" d="M456.496,389.761v-5.727h1.73l1.039,3.906l1.027-3.906h1.734v5.727h-1.074v-4.508l-1.137,4.508h-1.113
		l-1.133-4.508v4.508H456.496z"/>
</g>
<linearGradient id="SVGID_1_" gradientUnits="userSpaceOnUse" x1="192.1611" y1="355.0557" x2="192.1611" y2="437.7731">
	<stop  offset="0" style="stop-color:#46494D"/>
	<stop  offset="1" style="stop-color:#010101"/>
</linearGradient>
<path fill="url(#SVGID_1_)" d="M234.264,418.226c0,10.818-8.772,19.592-19.591,19.592h-45.025c-10.818,0-19.59-8.773-19.59-19.592
	v-44.047c0-10.822,8.771-19.592,19.59-19.592h45.025c10.818,0,19.591,8.77,19.591,19.592V418.226z"/>
<linearGradient id="SVGID_2_" gradientUnits="userSpaceOnUse" x1="192.1606" y1="375.1182" x2="192.1606" y2="410.6381">
	<stop  offset="0" style="stop-color:#F7E9BE"/>
	<stop  offset="0.5092" style="stop-color:#F7CA40"/>
	<stop  offset="0.865" style="stop-color:#EF9A21"/>
</linearGradient>
<circle fill="url(#SVGID_2_)" cx="192.161" cy="393.013" r="17.622"/>
<path fill="#FFFFFF" stroke="#231F20" d="M213.037,393.554c-7.049,0-9.76,15.184-20.876,15.184
	c-11.115,0-13.826-15.184-20.876-15.184c-2.44,0-3.523,2.17-3.523,2.17v17.621h48.8v-17.621
	C216.561,395.724,215.477,393.554,213.037,393.554z"/>
<path fill="#010101" d="M265.055,374.159c2.709-0.451,6.254-0.838,10.768-0.838c5.543,0,9.605,1.289,12.184,3.61
	c2.321,2.063,3.804,5.222,3.804,9.09c0,3.933-1.16,7.027-3.353,9.283c-3.029,3.159-7.801,4.771-13.28,4.771
	c-1.677,0-3.224-0.064-4.513-0.387v17.406h-5.609V374.159z M270.664,395.111c1.225,0.323,2.771,0.452,4.642,0.452
	c6.77,0,10.896-3.353,10.896-9.22c0-5.802-4.126-8.574-10.25-8.574c-2.451,0-4.32,0.193-5.287,0.451V395.111z"/>
<path fill="#010101" d="M302.463,385.893l6.77,18.438c0.773,2.062,1.547,4.513,2.062,6.382h0.129c0.58-1.869,1.227-4.255,2-6.511
	l6.188-18.31h5.996l-8.51,22.242c-4.061,10.701-6.834,16.117-10.701,19.534c-2.837,2.385-5.545,3.352-6.963,3.609l-1.418-4.706
	c1.418-0.451,3.287-1.354,4.964-2.771c1.547-1.226,3.417-3.417,4.771-6.318c0.258-0.58,0.451-1.031,0.451-1.354
	s-0.129-0.773-0.451-1.483l-11.476-28.753H302.463z"/>
<path fill="#010101" d="M331.878,371.323h5.674v45.772h-5.674V371.323z"/>
<path fill="#010101" d="M377.957,401.236c0,11.54-8.059,16.568-15.537,16.568c-8.381,0-14.957-6.188-14.957-16.053
	c0-10.379,6.898-16.504,15.473-16.504C371.896,385.248,377.957,391.76,377.957,401.236z M353.266,401.559
	c0,6.834,3.867,11.991,9.412,11.991c5.416,0,9.477-5.093,9.477-12.12c0-5.286-2.643-11.927-9.348-11.927
	C356.166,389.503,353.266,395.692,353.266,401.559z"/>
<path fill="#010101" d="M388.126,394.338c0-3.288-0.064-5.866-0.258-8.445h5.029l0.322,5.157h0.129
	c1.547-2.9,5.158-5.802,10.314-5.802c4.32,0,11.025,2.579,11.025,13.28v18.567h-5.674v-17.986c0-5.029-1.869-9.22-7.221-9.22
	c-3.674,0-6.576,2.644-7.607,5.803c-0.258,0.709-0.387,1.676-0.387,2.643v18.761h-5.674V394.338z"/>
<path fill="#010101" d="M424.067,411.358c1.74,1.031,4.705,2.191,7.543,2.191c4.061,0,5.994-1.998,5.994-4.642
	c0-2.708-1.611-4.126-5.736-5.673c-5.674-2.063-8.316-5.094-8.316-8.833c0-5.028,4.125-9.154,10.766-9.154
	c3.158,0,5.932,0.838,7.607,1.935l-1.354,4.126c-1.225-0.774-3.482-1.87-6.383-1.87c-3.352,0-5.158,1.935-5.158,4.255
	c0,2.579,1.807,3.739,5.867,5.352c5.352,1.998,8.188,4.706,8.188,9.348c0,5.544-4.318,9.412-11.604,9.412
	c-3.418,0-6.576-0.902-8.768-2.191L424.067,411.358z"/>
</svg>
