<?xml version="1.0" encoding="utf-8"?>
<!-- Generator: Adobe Illustrator 14.0.0, SVG Export Plug-In . SVG Version: 6.00 Build 43363)  -->
<!DOCTYPE svg PUBLIC "-//W3C//DTD SVG 1.1//EN" "http://www.w3.org/Graphics/SVG/1.1/DTD/svg11.dtd">
<svg version="1.1" id="Layer_1" xmlns="http://www.w3.org/2000/svg" xmlns:xlink="http://www.w3.org/1999/xlink" x="0px" y="0px"
	 width="612px" height="792px" viewBox="0 0 612 792" enable-background="new 0 0 612 792" xml:space="preserve">
<path fill="#E0B724" d="M188.673,351.685h-45.025c-11.905,0-21.59,9.686-21.59,21.592v44.047c0,11.906,9.685,21.593,21.59,21.593
	h45.025c11.905,0,21.591-9.687,21.591-21.593v-44.047C210.264,361.371,200.579,351.685,188.673,351.685z M208.264,417.324
	c0,10.818-8.772,19.592-19.591,19.592h-45.025c-10.818,0-19.59-8.773-19.59-19.592v-44.047c0-10.822,8.771-19.592,19.59-19.592
	h45.025c10.818,0,19.591,8.77,19.591,19.592V417.324z"/>
<linearGradient id="SVGID_1_" gradientUnits="userSpaceOnUse" x1="166.1611" y1="354.1538" x2="166.1611" y2="436.8717">
	<stop  offset="0" style="stop-color:#46494D"/>
	<stop  offset="1" style="stop-color:#010101"/>
</linearGradient>
<path fill="url(#SVGID_1_)" d="M208.264,417.324c0,10.818-8.772,19.592-19.591,19.592h-45.025c-10.818,0-19.59-8.773-19.59-19.592
	v-44.047c0-10.822,8.771-19.592,19.59-19.592h45.025c10.818,0,19.591,8.77,19.591,19.592V417.324z"/>
<g>
	<path fill="#FFFFFF" d="M476.529,376.71v-4.758h-1.699v-0.969h4.551v0.969h-1.695v4.758H476.529z"/>
	<path fill="#FFFFFF" d="M480.111,376.71v-5.727h1.73l1.039,3.906l1.027-3.906h1.734v5.727h-1.074v-4.508l-1.137,4.508h-1.113
		l-1.133-4.508v4.508H480.111z"/>
</g>
<g>
	<path fill="#FFFFFF" d="M139.18,410.572l26.494,4.295l26.493-4.295l-26.493-5.498L139.18,410.572L139.18,410.572z"/>
</g>
<g>
	<path fill="#FFFFFF" d="M239.411,373.746c2.764-0.46,6.382-0.855,10.987-0.855c5.659,0,9.805,1.316,12.436,3.685
		c2.369,2.105,3.883,5.33,3.883,9.277c0,4.014-1.185,7.172-3.422,9.475c-3.092,3.224-7.961,4.869-13.554,4.869
		c-1.711,0-3.29-0.065-4.606-0.395v17.766h-5.724V373.746z M245.135,395.129c1.251,0.329,2.83,0.461,4.738,0.461
		c6.908,0,11.119-3.422,11.119-9.409c0-5.921-4.211-8.751-10.461-8.751c-2.501,0-4.409,0.198-5.396,0.461V395.129z"/>
	<path fill="#FFFFFF" d="M278.103,385.721l6.909,18.818c0.789,2.105,1.578,4.605,2.105,6.514h0.131
		c0.592-1.908,1.25-4.344,2.039-6.646l6.316-18.686h6.119l-8.686,22.699c-4.145,10.922-6.973,16.449-10.922,19.938
		c-2.895,2.434-5.658,3.42-7.105,3.684l-1.447-4.803c1.447-0.461,3.355-1.383,5.066-2.83c1.579-1.25,3.486-3.486,4.869-6.447
		c0.263-0.592,0.461-1.053,0.461-1.383c0-0.328-0.133-0.789-0.461-1.512l-11.712-29.346H278.103z"/>
	<path fill="#FFFFFF" d="M308.754,395.656c0-3.75-0.065-6.974-0.263-9.935h5.066l0.263,6.316h0.197
		c1.448-4.277,5.001-6.974,8.883-6.974c0.592,0,1.053,0.065,1.579,0.131v5.461c-0.592-0.131-1.185-0.131-1.974-0.131
		c-4.08,0-6.975,3.026-7.764,7.369c-0.132,0.79-0.198,1.777-0.198,2.697v16.977h-5.79V395.656z"/>
	<path fill="#FFFFFF" d="M353.369,409.934c0,2.764,0.132,5.461,0.46,7.633h-5.197l-0.461-4.014h-0.197
		c-1.776,2.5-5.197,4.736-9.737,4.736c-6.448,0-9.738-4.539-9.738-9.145c0-7.699,6.843-11.91,19.146-11.844v-0.658
		c0-2.566-0.724-7.369-7.237-7.304c-3.026,0-6.119,0.855-8.356,2.369l-1.315-3.882c2.632-1.645,6.514-2.763,10.527-2.763
		c9.737,0,12.106,6.645,12.106,12.961V409.934z M347.776,401.314c-6.316-0.131-13.488,0.986-13.488,7.172
		c0,3.816,2.5,5.527,5.396,5.527c4.211,0,6.908-2.633,7.829-5.33c0.198-0.658,0.264-1.316,0.264-1.842V401.314z"/>
	<path fill="#FFFFFF" d="M364.687,394.34c0-3.355-0.131-5.987-0.263-8.619h5.066l0.263,5.198h0.197
		c1.777-3.026,4.737-5.855,10.067-5.855c4.276,0,7.566,2.632,8.948,6.382h0.131c0.987-1.842,2.304-3.158,3.619-4.145
		c1.908-1.448,3.948-2.237,6.975-2.237c4.276,0,10.527,2.763,10.527,13.817v18.687h-5.658v-17.963c0-6.185-2.303-9.803-6.909-9.803
		c-3.355,0-5.855,2.434-6.908,5.198c-0.264,0.855-0.461,1.842-0.461,2.895v19.674h-5.658v-19.082c0-5.065-2.237-8.684-6.646-8.684
		c-3.553,0-6.25,2.895-7.172,5.79c-0.329,0.789-0.46,1.841-0.46,2.83v19.146h-5.659V394.34z"/>
	<path fill="#FFFFFF" d="M427.984,376.772c0,1.974-1.382,3.553-3.685,3.553c-2.105,0-3.487-1.579-3.487-3.553
		s1.448-3.619,3.619-3.619C426.537,373.154,427.984,374.733,427.984,376.772z M421.536,417.566v-31.846h5.79v31.846H421.536z"/>
	<path fill="#FFFFFF" d="M466.344,370.851v38.491c0,2.828,0.132,6.053,0.263,8.225h-5.132l-0.263-5.527h-0.198
		c-1.71,3.553-5.526,6.25-10.725,6.25c-7.698,0-13.686-6.514-13.686-16.186c-0.065-10.593,6.58-17.041,14.278-17.041
		c4.935,0,8.158,2.303,9.605,4.803h0.132v-19.015H466.344z M460.619,398.683c0-0.724-0.065-1.711-0.263-2.435
		c-0.855-3.619-4.014-6.646-8.356-6.646c-5.987,0-9.54,5.264-9.54,12.237c0,6.449,3.224,11.779,9.408,11.779
		c3.882,0,7.436-2.633,8.488-6.91c0.197-0.789,0.263-1.578,0.263-2.5V398.683z"/>
</g>
<linearGradient id="SVGID_2_" gradientUnits="userSpaceOnUse" x1="184.4595" y1="373.0215" x2="176.4396" y2="405.5715">
	<stop  offset="0" style="stop-color:#F7CA40"/>
	<stop  offset="0.2077" style="stop-color:#F6C73E"/>
	<stop  offset="0.4291" style="stop-color:#F5BD37"/>
	<stop  offset="0.656" style="stop-color:#F2AE2B"/>
	<stop  offset="0.865" style="stop-color:#EF9A21"/>
</linearGradient>
<polygon fill="url(#SVGID_2_)" points="165.673,371.66 165.673,404.053 194.463,410.027 "/>
<linearGradient id="SVGID_3_" gradientUnits="userSpaceOnUse" x1="147.5518" y1="373.9521" x2="154.4092" y2="405.0407">
	<stop  offset="0" style="stop-color:#F7E9BE"/>
	<stop  offset="0.7432" style="stop-color:#F7CA40"/>
</linearGradient>
<polygon fill="url(#SVGID_3_)" points="165.673,404.053 165.673,371.66 136.882,410.027 "/>
</svg>
