<?xml version="1.0" encoding="utf-8"?>
<!-- Generator: Adobe Illustrator 14.0.0, SVG Export Plug-In . SVG Version: 6.00 Build 43363)  -->
<!DOCTYPE svg PUBLIC "-//W3C//DTD SVG 1.1//EN" "http://www.w3.org/Graphics/SVG/1.1/DTD/svg11.dtd">
<svg version="1.1" id="Layer_1" xmlns="http://www.w3.org/2000/svg" xmlns:xlink="http://www.w3.org/1999/xlink" x="0px" y="0px"
	 width="612px" height="792px" viewBox="0 0 612 792" enable-background="new 0 0 612 792" xml:space="preserve">
<g>
	<path fill="#010101" d="M477.529,377.496v-4.758h-1.699v-0.969h4.551v0.969h-1.695v4.758H477.529z"/>
	<path fill="#010101" d="M481.111,377.496v-5.727h1.73l1.039,3.906l1.027-3.906h1.734v5.727h-1.074v-4.508l-1.137,4.508h-1.113
		l-1.133-4.508v4.508H481.111z"/>
</g>
<linearGradient id="SVGID_1_" gradientUnits="userSpaceOnUse" x1="167.1611" y1="354.9395" x2="167.1611" y2="437.6578">
	<stop  offset="0" style="stop-color:#46494D"/>
	<stop  offset="1" style="stop-color:#010101"/>
</linearGradient>
<path fill="url(#SVGID_1_)" d="M209.264,418.11c0,10.818-8.772,19.592-19.591,19.592h-45.025c-10.818,0-19.59-8.773-19.59-19.592
	v-44.048c0-10.822,8.771-19.592,19.59-19.592h45.025c10.818,0,19.591,8.77,19.591,19.592V418.11z"/>
<linearGradient id="SVGID_2_" gradientUnits="userSpaceOnUse" x1="185.7554" y1="373.8286" x2="177.6091" y2="406.8915">
	<stop  offset="0" style="stop-color:#F7CA40"/>
	<stop  offset="0.2077" style="stop-color:#F6C73E"/>
	<stop  offset="0.4291" style="stop-color:#F5BD37"/>
	<stop  offset="0.656" style="stop-color:#F2AE2B"/>
	<stop  offset="0.865" style="stop-color:#EF9A21"/>
</linearGradient>
<polygon fill="url(#SVGID_2_)" points="166.673,405.349 166.673,372.445 195.917,411.418 "/>
<linearGradient id="SVGID_3_" gradientUnits="userSpaceOnUse" x1="148.2656" y1="374.7744" x2="155.2313" y2="406.3534">
	<stop  offset="0" style="stop-color:#F7E9BE"/>
	<stop  offset="0.7432" style="stop-color:#F7CA40"/>
</linearGradient>
<polygon fill="url(#SVGID_3_)" points="137.428,411.418 166.673,372.445 166.673,405.349 "/>
<polygon fill="#FFFFFF" stroke="#010101" points="195.917,411.418 166.673,416.159 137.428,411.418 166.673,405.349 "/>
<g>
	<path fill="#010101" d="M240.411,374.531c2.764-0.46,6.382-0.855,10.987-0.855c5.659,0,9.805,1.316,12.436,3.685
		c2.369,2.105,3.883,5.33,3.883,9.277c0,4.014-1.185,7.172-3.422,9.475c-3.092,3.224-7.961,4.869-13.554,4.869
		c-1.711,0-3.29-0.065-4.606-0.395v17.765h-5.724V374.531z M246.135,395.915c1.251,0.329,2.83,0.461,4.738,0.461
		c6.908,0,11.119-3.422,11.119-9.409c0-5.921-4.211-8.751-10.461-8.751c-2.501,0-4.409,0.198-5.396,0.461V395.915z"/>
	<path fill="#010101" d="M279.103,386.506l6.909,18.818c0.789,2.105,1.578,4.605,2.105,6.514h0.131
		c0.592-1.908,1.25-4.343,2.039-6.646l6.316-18.686h6.119l-8.686,22.7c-4.145,10.922-6.973,16.449-10.922,19.937
		c-2.895,2.434-5.658,3.421-7.105,3.684l-1.447-4.803c1.447-0.461,3.355-1.382,5.066-2.829c1.579-1.25,3.486-3.487,4.869-6.448
		c0.263-0.592,0.461-1.053,0.461-1.382s-0.133-0.789-0.461-1.513l-11.712-29.345H279.103z"/>
	<path fill="#010101" d="M309.754,396.441c0-3.75-0.065-6.974-0.263-9.935h5.066l0.263,6.316h0.197
		c1.448-4.277,5.001-6.974,8.883-6.974c0.592,0,1.053,0.065,1.579,0.131v5.461c-0.592-0.131-1.185-0.131-1.974-0.131
		c-4.08,0-6.975,3.026-7.764,7.369c-0.132,0.79-0.198,1.776-0.198,2.697v16.976h-5.79V396.441z"/>
	<path fill="#010101" d="M354.369,410.719c0,2.764,0.132,5.462,0.46,7.633h-5.197l-0.461-4.014h-0.197
		c-1.776,2.5-5.197,4.737-9.737,4.737c-6.448,0-9.738-4.54-9.738-9.146c0-7.698,6.843-11.909,19.146-11.844v-0.657
		c0-2.566-0.724-7.369-7.237-7.304c-3.026,0-6.119,0.855-8.356,2.369l-1.315-3.882c2.632-1.645,6.514-2.763,10.527-2.763
		c9.737,0,12.106,6.645,12.106,12.962V410.719z M348.776,402.1c-6.316-0.131-13.488,0.987-13.488,7.172
		c0,3.816,2.5,5.527,5.396,5.527c4.211,0,6.908-2.632,7.829-5.33c0.198-0.657,0.264-1.315,0.264-1.842V402.1z"/>
	<path fill="#010101" d="M365.687,395.125c0-3.355-0.131-5.987-0.263-8.619h5.066l0.263,5.198h0.197
		c1.777-3.026,4.737-5.855,10.067-5.855c4.276,0,7.566,2.632,8.948,6.382h0.131c0.987-1.842,2.304-3.158,3.619-4.145
		c1.908-1.448,3.948-2.237,6.975-2.237c4.276,0,10.527,2.763,10.527,13.817v18.686h-5.658v-17.963c0-6.184-2.303-9.803-6.909-9.803
		c-3.355,0-5.855,2.434-6.908,5.198c-0.264,0.855-0.461,1.842-0.461,2.895v19.673h-5.658v-19.081c0-5.066-2.237-8.685-6.646-8.685
		c-3.553,0-6.25,2.895-7.172,5.79c-0.329,0.789-0.46,1.842-0.46,2.829v19.146h-5.659V395.125z"/>
	<path fill="#010101" d="M428.984,377.558c0,1.974-1.382,3.553-3.685,3.553c-2.105,0-3.487-1.579-3.487-3.553
		s1.448-3.619,3.619-3.619C427.537,373.939,428.984,375.519,428.984,377.558z M422.536,418.352v-31.845h5.79v31.845H422.536z"/>
	<path fill="#010101" d="M467.344,371.637v38.49c0,2.829,0.132,6.054,0.263,8.225h-5.132l-0.263-5.527h-0.198
		c-1.71,3.554-5.526,6.251-10.725,6.251c-7.698,0-13.686-6.514-13.686-16.186c-0.065-10.593,6.58-17.041,14.278-17.041
		c4.935,0,8.158,2.303,9.605,4.803h0.132v-19.015H467.344z M461.619,399.469c0-0.725-0.065-1.711-0.263-2.436
		c-0.855-3.618-4.014-6.645-8.356-6.645c-5.987,0-9.54,5.264-9.54,12.238c0,6.448,3.224,11.778,9.408,11.778
		c3.882,0,7.436-2.633,8.488-6.909c0.197-0.789,0.263-1.579,0.263-2.5V399.469z"/>
</g>
</svg>
